PathFileType	4	(X/Y/Z)	/Users/niels/Desktop/University/Third Semester/Perception and Action/Exam/Gymnastics Motion Tracking/Code for Gym Tracking/Analyzed Data/Webcam_Backflip/id2006_1_trajectory_Sports2D/id2006_1_trajectory_Sports2D_px_person00.trc
DataRate	CameraRate	NumFrames	NumMarkers	Units	OrigDataRate	OrigDataStartFrame	OrigNumFrames
29.797297297297295	29.797297297297295	8	22	m	29.797297297297295	0	148
Frame#	Time	Hip			RHip			RKnee			RAnkle			RBigToe			RSmallToe			RHeel			LHip			LKnee			LAnkle			LBigToe			LSmallToe			LHeel			Neck			Head			Nose			RShoulder			RElbow			RWrist			LShoulder			LElbow			LWrist		
		X1	Y1	Z1	X2	Y2	Z2	X3	Y3	Z3	X4	Y4	Z4	X5	Y5	Z5	X6	Y6	Z6	X7	Y7	Z7	X8	Y8	Z8	X9	Y9	Z9	X10	Y10	Z10	X11	Y11	Z11	X12	Y12	Z12	X13	Y13	Z13	X14	Y14	Z14	X15	Y15	Z15	X16	Y16	Z16	X17	Y17	Z17	X18	Y18	Z18	X19	Y19	Z19	X20	Y20	Z20	X21	Y21	Z21	X22	Y22	Z22
0	0.0	0.9110052496960925	-0.7503394628227266	0.0	0.9450749707848146	-0.7634580815050244	0.0	1.0393624991957287	-1.0621681409063874	0.0	0.6281059570312499	-0.9744912109374998	0.0	0.4885078124999999	-1.2011458740234375	0.0			0.0	0.6023291015625004	-0.9143344726562503	0.0	0.8743265103890233	-0.7608439948573703	0.0	0.90584488542203	-1.0621685619428394	0.0	0.9275225830082343	-1.0778895263675863	0.0			0.0	0.6565966796875001	-1.0058969726562503	0.0	0.6037456054687497	-0.9866713867187499	0.0	1.002736335094932	-0.23155551473988242	0.0	1.1651744682340668	-0.08481113577887323	0.0	1.1442246942965286	-0.21317924836854674	0.0	0.9739030272239562	-0.24726499079582076	0.0	0.9319615302916581	-0.5145273649263934	0.0	0.9791479600438199	-0.7870279063131775	0.0	0.9555798543407725	-0.26300267850360187	0.0	0.9136141901260182	-0.5276340218754791	0.0	1.0184522798293396	-0.7555996842568433	0.0
1	0.033560090702947847	0.9097910196868362	-0.7527819677833983	0.0	0.9426033207211222	-0.762948126375177	0.0	1.0287232306192733	-1.063040065348362	0.0	0.6281059570312499	-0.9744912109374998	0.0	0.4885078124999999	-1.2011458740234375	0.0			0.0	0.6023291015625004	-0.9143344726562503	0.0	0.8739003712494349	-0.7612365787967129	0.0	0.8991655045038333	-1.0642907356391715	0.0	0.92752258302427	-1.0778895263725692	0.0			0.0	0.6565966796875001	-1.0058969726562503	0.0	0.6037456054687497	-0.9866713867187499	0.0	0.9986310542162207	-0.23214334166188183	0.0	1.1576938107105963	-0.0826607459856721	0.0	1.1360948636472057	-0.20867826958953814	0.0	0.9682008940203095	-0.2495269243375992	0.0	0.9254037576453478	-0.5140653395236335	0.0	0.9826508907758956	-0.7840597437079155	0.0	0.9581248957384424	-0.26633327707299215	0.0	0.9120211254714666	-0.5275634232240427	0.0	1.0122889619087352	-0.7558984941938214	0.0
2	0.06712018140589569	0.9090097970779383	-0.7547245012189148	0.0	0.9391950684823315	-0.762179110732016	0.0	1.0177487101015539	-1.0638257682363397	0.0	0.6281059570312499	-0.9744912109374998	0.0	0.4885078124999999	-1.2011458740234375	0.0			0.0	0.6023291015625004	-0.9143344726562503	0.0	0.8753103721754819	-0.7616450083844114	0.0	0.89510989042423	-1.0660478679910934	0.0	0.927522583052359	-1.0778895263811226	0.0			0.0	0.6565966796875001	-1.0058969726562503	0.0	0.6037456054687497	-0.9866713867187499	0.0	0.9943873592312075	-0.23233157646129363	0.0	1.149547684937575	-0.07984728836513533	0.0	1.1277350599241647	-0.20376979677455512	0.0	0.9622498835227499	-0.251808857841281	0.0	0.9198470035785166	-0.5141955990507837	0.0	0.986974633193452	-0.7813990036315062	0.0	0.9621356925787456	-0.2698399805125858	0.0	0.9149837484812317	-0.5277624255159961	0.0	1.008887051544407	-0.7564998355632876	0.0
3	0.10068027210884353	0.9088106487738704	-0.7559515209775786	0.0	0.9346434624551665	-0.7610662477593707	0.0	1.006042314472416	-1.0643847960954955	0.0	0.6281059570312499	-0.9744912109374999	0.0	0.4885078124999999	-1.2011458740234375	0.0			0.0	0.6023291015625004	-0.9143344726562503	0.0	0.8795162328188206	-0.7620053995622826	0.0	0.8954325205929397	-1.0671171752823467	0.0	0.9275225830912868	-1.0778895263927346	0.0			0.0	0.6565966796875001	-1.0058969726562503	0.0	0.6037456054687497	-0.9866713867187499	0.0	0.9898592603904319	-0.2319180528024026	0.0	1.1402824432731538	-0.07593946284506395	0.0	1.1189558916543336	-0.1982118893008989	0.0	0.9560275544659963	-0.25418759403629004	0.0	0.9161206107474617	-0.5153182333308187	0.0	0.9927043599247114	-0.7793707652414306	0.0	0.9675891857178028	-0.2733666699326181	0.0	0.9239827183023904	-0.5282801650338746	0.0	1.0094909169386468	-0.7576188374103473	0.0
4	0.13424036281179139	0.9090417668939815	-0.7566032597459627	0.0	0.9295575280492311	-0.7598022707227357	0.0	0.9934017549282297	-1.064717480940669	0.0	0.6281059570312499	-0.9744912109375	0.0	0.4885078124999999	-1.2011458740234375	0.0			0.0	0.6023291015625004	-0.9143344726562503	0.0	0.8862621097570803	-0.762253396933685	0.0	0.9004735973981904	-1.0674269365210778	0.0	0.9275225831310265	-1.0778895264041664	0.0			0.0	0.6565966796875001	-1.0058969726562503	0.0	0.6037456054687496	-0.9866713867187499	0.0	0.984992784520578	-0.23093358460680907	0.0	1.1297345393948341	-0.07087888603167809	0.0	1.1096916649084294	-0.19198981316652963	0.0	0.949703699764022	-0.25676431883673934	0.0	0.9147511335638902	-0.5176254432753797	0.0	1.0000595834873418	-0.7783327698486302	0.0	0.9729939943760232	-0.2764925701754444	0.0	0.9368468241980134	-0.5290474308357493	0.0	1.0137125171434278	-0.7592897518083772	0.0
5	0.16780045351473924	0.9094724292213227	-0.7569902417423124	0.0	0.9247826756912484	-0.7587334042969892	0.0	0.9801081754682511	-1.0650107217992881	0.0	0.6281059570312498	-0.9744912109375001	0.0	0.4885078124999999	-1.2011458740234375	0.0			0.0	0.6023291015625004	-0.9143344726562503	0.0	0.8944266800609663	-0.7623956150467512	0.0	0.9089284995869581	-1.0672340417248287	0.0	0.9275225831467581	-1.077889526407689	0.0			0.0	0.6565966796875001	-1.0058969726562503	0.0	0.6037456054687494	-0.9866713867187499	0.0	0.9798467586330855	-0.22952010741161066	0.0	1.1178793809927652	-0.06488359053089884	0.0	1.0999867871174087	-0.1852701989138882	0.0	0.9433933738811977	-0.25959139250358715	0.0	0.9158802117401729	-0.5212006031197004	0.0	1.008928359260532	-0.7785819041445274	0.0	0.9768085013665133	-0.2788499207783356	0.0	0.9500499593014867	-0.5301049762184349	0.0	1.0203206595826821	-0.7613817969891608	0.0
6	0.20136054421768707	0.9099230501693393	-0.7573775258396505	0.0	0.9207868852389902	-0.7581610420571888	0.0	0.9669414630804058	-1.0653815597832497	0.0	0.6281059570312497	-0.9744912109375002	0.0	0.4885078124999999	-1.2011458740234375	0.0			0.0	0.6023291015625004	-0.9143344726562503	0.0	0.9026112167575449	-0.7625066283910722	0.0	0.9181457354464087	-1.0668942596686282	0.0	0.9275225830940478	-1.0778895263897499	0.0			0.0	0.6565966796875001	-1.0058969726562503	0.0	0.6037456054687493	-0.9866713867187499	0.0	0.9745535109746556	-0.22782459683161355	0.0	1.1048115185860938	-0.05828736998690378	0.0	1.0899755642038425	-0.17835494525502094	0.0	0.9370549875465333	-0.2626070621733951	0.0	0.9191532562833901	-0.5259506630682055	0.0	1.018933732263387	-0.7801191623501254	0.0	0.9786142180138836	-0.28031458762288997	0.0	0.9611954710495547	-0.5315226296829196	0.0	1.0279294367686476	-0.7636459527130035	0.0
7	0.23492063492063492	0.9101941000409827	-0.7579185455747692	0.0	0.9173826704146127	-0.758269504233445	0.0	0.9547248219279766	-1.0657332483243425	0.0	0.6281059570312497	-0.9744912109375001	0.0	0.4885078124999999	-1.2011458740234375	0.0			0.0	0.6023291015625004	-0.9143344726562503	0.0	0.9097444782779092	-0.7627218075086158	0.0	0.9254517588616925	-1.0666096998894203	0.0	0.9275225829099922	-1.0778895263315451	0.0			0.0	0.6565966796875001	-1.0058969726562503	0.0	0.6037456054687494	-0.9866713867187499	0.0	0.9692990169237102	-0.226000554168614	0.0	1.090880330803615	-0.051466209504779814	0.0	1.0798686278218317	-0.17160330090370915	0.0	0.9305819595326799	-0.2656231108152675	0.0	0.9236841284973745	-0.5314800021205082	0.0	1.0294897295368801	-0.7825125268076932	0.0	0.979119892142959	-0.28107848269370495	0.0	0.9697037890112693	-0.5331824970710856	0.0	1.0353953544044505	-0.7657097331279467	0.0
